<svg xmlns="http://www.w3.org/2000/svg" width="1200" height="630" viewBox="0 0 1200 630" role="img" aria-labelledby="t d">
<title id="t">Diagnóstico de PC que não liga</title>
<desc id="d">Ilustração editorial de gabinete, botão de energia, monitor e etapas de alimentação, POST e vídeo.</desc>
<defs>
  <linearGradient id="bg" x1="0" y1="0" x2="1" y2="1"><stop stop-color="#07152b"/><stop offset="1" stop-color="#12375d"/></linearGradient>
  <filter id="blur"><feGaussianBlur stdDeviation="44"/></filter>
</defs>
<rect width="1200" height="630" fill="url(#bg)"/>
<circle cx="1015" cy="110" r="165" fill="#00b8d9" opacity=".15" filter="url(#blur)"/>
<circle cx="180" cy="540" r="180" fill="#2374e1" opacity=".16" filter="url(#blur)"/>
<g fill="none" stroke-linecap="round" stroke-linejoin="round">
  <rect x="125" y="170" width="275" height="330" rx="28" stroke="#f8fbff" stroke-width="15"/>
  <circle cx="262" cy="250" r="40" stroke="#68e0ff" stroke-width="14"/>
  <path d="M262 222v40" stroke="#00d4ff" stroke-width="13"/>
  <circle cx="210" cy="390" r="8" fill="#00d4ff" stroke="none"/>
  <circle cx="245" cy="390" r="8" fill="#68e0ff" stroke="none"/>
  <rect x="760" y="215" width="315" height="205" rx="24" stroke="#f8fbff" stroke-width="15"/>
  <path d="M730 445h375M845 445l-28 42h205l-28-42" stroke="#f8fbff" stroke-width="15"/>
  <circle cx="555" cy="220" r="58" stroke="#f8fbff" stroke-width="14"/>
  <path d="M555 178v42M525 245h60" stroke="#00d4ff" stroke-width="12"/>
  <circle cx="555" cy="350" r="58" stroke="#f8fbff" stroke-width="14"/>
  <path d="M523 350h64M555 318v64" stroke="#00d4ff" stroke-width="12"/>
  <circle cx="555" cy="480" r="58" stroke="#f8fbff" stroke-width="14"/>
  <path d="M523 480l22 22 45-48" stroke="#00d4ff" stroke-width="12"/>
  <path d="M400 250h92M613 220h88M400 390h92M613 350h88M613 480h88" stroke="#68e0ff" stroke-width="12"/>
  <path d="M475 232l27 18-27 18M675 202l27 18-27 18M475 372l27 18-27 18M675 332l27 18-27 18M675 462l27 18-27 18" stroke="#68e0ff" stroke-width="10"/>
</g>
</svg>