<svg xmlns="http://www.w3.org/2000/svg" width="1200" height="630" viewBox="0 0 1200 630" role="img" aria-labelledby="t d">
<title id="t">SSD ausente no instalador do Windows</title>
<desc id="d">Ilustração editorial de SSD, firmware e tela de instalação conectados por uma sequência de diagnóstico.</desc>
<defs>
  <linearGradient id="bg" x1="0" y1="0" x2="1" y2="1"><stop stop-color="#07152b"/><stop offset="1" stop-color="#12375d"/></linearGradient>
  <filter id="blur"><feGaussianBlur stdDeviation="44"/></filter>
</defs>
<rect width="1200" height="630" fill="url(#bg)"/>
<circle cx="1000" cy="105" r="165" fill="#00b8d9" opacity=".15" filter="url(#blur)"/>
<circle cx="175" cy="545" r="185" fill="#2374e1" opacity=".16" filter="url(#blur)"/>
<g fill="none" stroke-linecap="round" stroke-linejoin="round">
  <rect x="110" y="235" width="300" height="165" rx="26" stroke="#f8fbff" stroke-width="15"/>
  <circle cx="165" cy="317" r="13" stroke="#00d4ff" stroke-width="9"/>
  <path d="M205 282h150M205 318h115M205 354h135" stroke="#68e0ff" stroke-width="12"/>
  <rect x="785" y="170" width="300" height="230" rx="26" stroke="#f8fbff" stroke-width="15"/>
  <path d="M820 220h230M820 263h180M820 306h105" stroke="#68e0ff" stroke-width="12"/>
  <path d="M770 438h330" stroke="#f8fbff" stroke-width="15"/>
  <rect x="492" y="220" width="170" height="265" rx="22" stroke="#f8fbff" stroke-width="15"/>
  <path d="M535 260h84M535 302h84M535 344h84M535 386h84" stroke="#00d4ff" stroke-width="11"/>
  <circle cx="577" cy="444" r="13" fill="#68e0ff" stroke="none"/>
  <path d="M410 317h70M675 317h95" stroke="#00d4ff" stroke-width="13"/>
  <path d="M454 297l28 20-28 20M744 297l28 20-28 20" stroke="#00d4ff" stroke-width="11"/>
</g>
</svg>
